<svg xmlns="http://www.w3.org/2000/svg" width="280" height="280" viewBox="0 0 280 280" fill="none">
  <!-- T-shirt, tilted left -->
  <g stroke="#0E1A24" stroke-width="2" fill="none" opacity="0.12" stroke-linejoin="round" transform="rotate(-12 70 80)">
    <path d="M40 50 L52 38 Q60 42 70 42 Q80 42 88 38 L100 50 L110 60 L102 68 L94 60 L94 110 L46 110 L46 60 L38 68 Z" />
  </g>
  <!-- Hoodie, tilted right -->
  <g stroke="#0E1A24" stroke-width="2" fill="none" opacity="0.12" stroke-linejoin="round" transform="rotate(15 185 65)">
    <path d="M170 38 Q175 30 185 30 Q195 30 200 38 L212 48 L222 60 L214 68 L208 62 L208 100 L162 100 L162 62 L156 68 L148 60 L158 48 Z" />
    <path d="M177 38 Q185 50 193 38" />
  </g>
  <!-- Sticker, tilted right -->
  <g stroke="#0E1A24" stroke-width="2" fill="none" opacity="0.12" stroke-linejoin="round" transform="rotate(8 80 180)">
    <path d="M50 160 L100 160 L110 170 L110 200 L50 200 Z" />
    <path d="M100 160 L100 170 L110 170" />
  </g>
  <!-- Cap, tilted left -->
  <g stroke="#0E1A24" stroke-width="2" fill="none" opacity="0.12" stroke-linejoin="round" transform="rotate(-9 185 170)">
    <path d="M165 175 Q165 155 190 155 Q215 155 215 175 L215 185 L155 188 Q160 178 165 175 Z" />
  </g>
  <!-- Small dots -->
  <g fill="#0E1A24" opacity="0.05">
    <circle cx="20" cy="20" r="1.5" />
    <circle cx="140" cy="140" r="1.5" />
    <circle cx="260" cy="20" r="1.5" />
    <circle cx="20" cy="260" r="1.5" />
    <circle cx="260" cy="260" r="1.5" />
  </g>
</svg>
